<mxfile host="app.diagrams.net" agent="Mozilla/5.0 (Windows NT 10.0; Win64; x64) AppleWebKit/537.36 (KHTML, like Gecko) Chrome/135.0.0.0 Safari/537.36" version="26.2.14">
  <diagram name="UML Diagram" id="5gW-J_ir81kG6iOfM3Y2">
    <mxGraphModel dx="1068" dy="452" grid="1" gridSize="10" guides="1" tooltips="1" connect="1" arrows="1" fold="1" page="1" pageScale="1" pageWidth="827" pageHeight="1169" math="0" shadow="0">
      <root>
        <mxCell id="0" />
        <mxCell id="1" parent="0" />
        <mxCell id="3D3lP3EjolxqIPAAytp8-69" value="User" style="swimlane;fontStyle=2;align=center;verticalAlign=top;childLayout=stackLayout;horizontal=1;startSize=26;horizontalStack=0;resizeParent=1;resizeLast=0;collapsible=1;marginBottom=0;rounded=0;shadow=0;strokeWidth=1;" vertex="1" parent="1">
          <mxGeometry x="360" y="525" width="160" height="176" as="geometry">
            <mxRectangle x="230" y="140" width="160" height="26" as="alternateBounds" />
          </mxGeometry>
        </mxCell>
        <mxCell id="3D3lP3EjolxqIPAAytp8-70" value="+ name &#xa;+ email &#xa;+ password &#xa;+ role &#xa;+ restaurant_id&#xa;+ email_verified_at  &#xa;" style="text;align=left;verticalAlign=top;spacingLeft=4;spacingRight=4;overflow=hidden;rotatable=0;points=[[0,0.5],[1,0.5]];portConstraint=eastwest;rounded=0;shadow=0;html=0;" vertex="1" parent="3D3lP3EjolxqIPAAytp8-69">
          <mxGeometry y="26" width="160" height="90" as="geometry" />
        </mxCell>
        <mxCell id="3D3lP3EjolxqIPAAytp8-71" value="" style="line;html=1;strokeWidth=1;align=left;verticalAlign=middle;spacingTop=-1;spacingLeft=3;spacingRight=3;rotatable=0;labelPosition=right;points=[];portConstraint=eastwest;" vertex="1" parent="3D3lP3EjolxqIPAAytp8-69">
          <mxGeometry y="116" width="160" height="8" as="geometry" />
        </mxCell>
        <mxCell id="3D3lP3EjolxqIPAAytp8-72" value="hasMany(Order)&#xa;hasMany(Restaurant)" style="text;align=left;verticalAlign=top;spacingLeft=4;spacingRight=4;overflow=hidden;rotatable=0;points=[[0,0.5],[1,0.5]];portConstraint=eastwest;" vertex="1" parent="3D3lP3EjolxqIPAAytp8-69">
          <mxGeometry y="124" width="160" height="42" as="geometry" />
        </mxCell>
        <mxCell id="3D3lP3EjolxqIPAAytp8-73" value="Category" style="swimlane;fontStyle=0;align=center;verticalAlign=top;childLayout=stackLayout;horizontal=1;startSize=26;horizontalStack=0;resizeParent=1;resizeLast=0;collapsible=1;marginBottom=0;rounded=0;shadow=0;strokeWidth=1;" vertex="1" parent="1">
          <mxGeometry x="1060" y="820" width="160" height="110" as="geometry">
            <mxRectangle x="130" y="380" width="160" height="26" as="alternateBounds" />
          </mxGeometry>
        </mxCell>
        <mxCell id="3D3lP3EjolxqIPAAytp8-74" value="+ name" style="text;align=left;verticalAlign=top;spacingLeft=4;spacingRight=4;overflow=hidden;rotatable=0;points=[[0,0.5],[1,0.5]];portConstraint=eastwest;" vertex="1" parent="3D3lP3EjolxqIPAAytp8-73">
          <mxGeometry y="26" width="160" height="26" as="geometry" />
        </mxCell>
        <mxCell id="3D3lP3EjolxqIPAAytp8-75" value="" style="line;html=1;strokeWidth=1;align=left;verticalAlign=middle;spacingTop=-1;spacingLeft=3;spacingRight=3;rotatable=0;labelPosition=right;points=[];portConstraint=eastwest;" vertex="1" parent="3D3lP3EjolxqIPAAytp8-73">
          <mxGeometry y="52" width="160" height="8" as="geometry" />
        </mxCell>
        <mxCell id="3D3lP3EjolxqIPAAytp8-76" value="belongsTo(Restaurant)&#xa;hasMany(Item)" style="text;align=left;verticalAlign=top;spacingLeft=4;spacingRight=4;overflow=hidden;rotatable=0;points=[[0,0.5],[1,0.5]];portConstraint=eastwest;" vertex="1" parent="3D3lP3EjolxqIPAAytp8-73">
          <mxGeometry y="60" width="160" height="50" as="geometry" />
        </mxCell>
        <mxCell id="3D3lP3EjolxqIPAAytp8-77" value="Restaurant" style="swimlane;fontStyle=0;align=center;verticalAlign=top;childLayout=stackLayout;horizontal=1;startSize=26;horizontalStack=0;resizeParent=1;resizeLast=0;collapsible=1;marginBottom=0;rounded=0;shadow=0;strokeWidth=1;" vertex="1" parent="1">
          <mxGeometry x="655" y="820" width="190" height="130" as="geometry">
            <mxRectangle x="340" y="380" width="170" height="26" as="alternateBounds" />
          </mxGeometry>
        </mxCell>
        <mxCell id="3D3lP3EjolxqIPAAytp8-78" value="+ name" style="text;align=left;verticalAlign=top;spacingLeft=4;spacingRight=4;overflow=hidden;rotatable=0;points=[[0,0.5],[1,0.5]];portConstraint=eastwest;" vertex="1" parent="3D3lP3EjolxqIPAAytp8-77">
          <mxGeometry y="26" width="190" height="26" as="geometry" />
        </mxCell>
        <mxCell id="3D3lP3EjolxqIPAAytp8-79" value="" style="line;html=1;strokeWidth=1;align=left;verticalAlign=middle;spacingTop=-1;spacingLeft=3;spacingRight=3;rotatable=0;labelPosition=right;points=[];portConstraint=eastwest;" vertex="1" parent="3D3lP3EjolxqIPAAytp8-77">
          <mxGeometry y="52" width="190" height="8" as="geometry" />
        </mxCell>
        <mxCell id="3D3lP3EjolxqIPAAytp8-80" value="hasMany(Category)&#xa;hasMany(Item)&#xa;hasMany(Order)&#xa;belongsTo(User)" style="text;align=left;verticalAlign=top;spacingLeft=4;spacingRight=4;overflow=hidden;rotatable=0;points=[[0,0.5],[1,0.5]];portConstraint=eastwest;" vertex="1" parent="3D3lP3EjolxqIPAAytp8-77">
          <mxGeometry y="60" width="190" height="60" as="geometry" />
        </mxCell>
        <mxCell id="3D3lP3EjolxqIPAAytp8-81" value="Order" style="swimlane;fontStyle=0;align=center;verticalAlign=top;childLayout=stackLayout;horizontal=1;startSize=26;horizontalStack=0;resizeParent=1;resizeLast=0;collapsible=1;marginBottom=0;rounded=0;shadow=0;strokeWidth=1;" vertex="1" parent="1">
          <mxGeometry x="670" y="518" width="160" height="230" as="geometry">
            <mxRectangle x="550" y="140" width="160" height="26" as="alternateBounds" />
          </mxGeometry>
        </mxCell>
        <mxCell id="3D3lP3EjolxqIPAAytp8-82" value="+ user_id&#xa;+ restaurant_id&#xa;+ status&#xa;+ time_to_pickup&#xa;+ total_price&#xa;+ notes&#xa;" style="text;align=left;verticalAlign=top;spacingLeft=4;spacingRight=4;overflow=hidden;rotatable=0;points=[[0,0.5],[1,0.5]];portConstraint=eastwest;rounded=0;shadow=0;html=0;" vertex="1" parent="3D3lP3EjolxqIPAAytp8-81">
          <mxGeometry y="26" width="160" height="104" as="geometry" />
        </mxCell>
        <mxCell id="3D3lP3EjolxqIPAAytp8-104" value="" style="endArrow=none;html=1;rounded=0;" edge="1" parent="3D3lP3EjolxqIPAAytp8-81">
          <mxGeometry width="50" height="50" relative="1" as="geometry">
            <mxPoint y="129.42999999999995" as="sourcePoint" />
            <mxPoint x="160" y="129.42999999999995" as="targetPoint" />
          </mxGeometry>
        </mxCell>
        <mxCell id="3D3lP3EjolxqIPAAytp8-84" value="belongsTo(User)&#xa;belongsTo(Restaurant)&#xa;hasMany(Item)&#xa;calculateTotal()&#xa;updateStatus()" style="text;align=left;verticalAlign=top;spacingLeft=4;spacingRight=4;overflow=hidden;rotatable=0;points=[[0,0.5],[1,0.5]];portConstraint=eastwest;" vertex="1" parent="3D3lP3EjolxqIPAAytp8-81">
          <mxGeometry y="130" width="160" height="100" as="geometry" />
        </mxCell>
        <mxCell id="3D3lP3EjolxqIPAAytp8-85" value="Item" style="swimlane;fontStyle=0;align=center;verticalAlign=top;childLayout=stackLayout;horizontal=1;startSize=26;horizontalStack=0;resizeParent=1;resizeLast=0;collapsible=1;marginBottom=0;rounded=0;shadow=0;strokeWidth=1;" vertex="1" parent="1">
          <mxGeometry x="1060" y="535" width="160" height="156" as="geometry">
            <mxRectangle x="130" y="380" width="160" height="26" as="alternateBounds" />
          </mxGeometry>
        </mxCell>
        <mxCell id="3D3lP3EjolxqIPAAytp8-86" value="+ name&#xa;+ category_id&#xa;+ price&#xa;+ cost" style="text;align=left;verticalAlign=top;spacingLeft=4;spacingRight=4;overflow=hidden;rotatable=0;points=[[0,0.5],[1,0.5]];portConstraint=eastwest;" vertex="1" parent="3D3lP3EjolxqIPAAytp8-85">
          <mxGeometry y="26" width="160" height="70" as="geometry" />
        </mxCell>
        <mxCell id="3D3lP3EjolxqIPAAytp8-87" value="" style="line;html=1;strokeWidth=1;align=left;verticalAlign=middle;spacingTop=-1;spacingLeft=3;spacingRight=3;rotatable=0;labelPosition=right;points=[];portConstraint=eastwest;" vertex="1" parent="3D3lP3EjolxqIPAAytp8-85">
          <mxGeometry y="96" width="160" height="8" as="geometry" />
        </mxCell>
        <mxCell id="3D3lP3EjolxqIPAAytp8-88" value="belongsTo(Category)&#xa;hasMany(Order)&#xa;belongsTo(Restaurant)" style="text;align=left;verticalAlign=top;spacingLeft=4;spacingRight=4;overflow=hidden;rotatable=0;points=[[0,0.5],[1,0.5]];portConstraint=eastwest;" vertex="1" parent="3D3lP3EjolxqIPAAytp8-85">
          <mxGeometry y="104" width="160" height="52" as="geometry" />
        </mxCell>
        <mxCell id="3D3lP3EjolxqIPAAytp8-89" value="" style="endArrow=none;html=1;rounded=0;exitX=1;exitY=0.5;exitDx=0;exitDy=0;entryX=0;entryY=0.5;entryDx=0;entryDy=0;" edge="1" parent="1" source="3D3lP3EjolxqIPAAytp8-70" target="3D3lP3EjolxqIPAAytp8-82">
          <mxGeometry width="50" height="50" relative="1" as="geometry">
            <mxPoint x="490" y="630" as="sourcePoint" />
            <mxPoint x="610" y="610" as="targetPoint" />
          </mxGeometry>
        </mxCell>
        <mxCell id="3D3lP3EjolxqIPAAytp8-90" value="0..*" style="edgeLabel;html=1;align=center;verticalAlign=middle;resizable=0;points=[];" vertex="1" connectable="0" parent="3D3lP3EjolxqIPAAytp8-89">
          <mxGeometry x="-0.7942" y="2" relative="1" as="geometry">
            <mxPoint x="-1" y="-9" as="offset" />
          </mxGeometry>
        </mxCell>
        <mxCell id="3D3lP3EjolxqIPAAytp8-91" value="1" style="resizable=0;align=right;verticalAlign=bottom;labelBackgroundColor=none;fontSize=12;" connectable="0" vertex="1" parent="1">
          <mxGeometry x="660" y="598" as="geometry">
            <mxPoint x="-5" y="-4" as="offset" />
          </mxGeometry>
        </mxCell>
        <mxCell id="3D3lP3EjolxqIPAAytp8-92" value="" style="endArrow=none;html=1;rounded=0;entryX=1;entryY=0.5;entryDx=0;entryDy=0;exitX=0;exitY=0.5;exitDx=0;exitDy=0;" edge="1" parent="1" source="3D3lP3EjolxqIPAAytp8-86" target="3D3lP3EjolxqIPAAytp8-82">
          <mxGeometry width="50" height="50" relative="1" as="geometry">
            <mxPoint x="990" y="580" as="sourcePoint" />
            <mxPoint x="921" y="770" as="targetPoint" />
          </mxGeometry>
        </mxCell>
        <mxCell id="3D3lP3EjolxqIPAAytp8-93" value="0..*" style="edgeLabel;html=1;align=center;verticalAlign=middle;resizable=0;points=[];" vertex="1" connectable="0" parent="3D3lP3EjolxqIPAAytp8-92">
          <mxGeometry x="-0.7942" y="2" relative="1" as="geometry">
            <mxPoint x="4" y="10" as="offset" />
          </mxGeometry>
        </mxCell>
        <mxCell id="3D3lP3EjolxqIPAAytp8-94" value="1..*" style="edgeLabel;html=1;align=center;verticalAlign=middle;resizable=0;points=[];" vertex="1" connectable="0" parent="3D3lP3EjolxqIPAAytp8-92">
          <mxGeometry x="0.4215" y="-1" relative="1" as="geometry">
            <mxPoint x="-57" y="14" as="offset" />
          </mxGeometry>
        </mxCell>
        <mxCell id="3D3lP3EjolxqIPAAytp8-95" value="" style="endArrow=none;html=1;rounded=0;entryX=0.5;entryY=0;entryDx=0;entryDy=0;exitX=0.499;exitY=0.985;exitDx=0;exitDy=0;exitPerimeter=0;" edge="1" parent="1" source="3D3lP3EjolxqIPAAytp8-88" target="3D3lP3EjolxqIPAAytp8-73">
          <mxGeometry width="50" height="50" relative="1" as="geometry">
            <mxPoint x="960" y="910" as="sourcePoint" />
            <mxPoint x="690" y="760" as="targetPoint" />
          </mxGeometry>
        </mxCell>
        <mxCell id="3D3lP3EjolxqIPAAytp8-96" value="1" style="edgeLabel;html=1;align=center;verticalAlign=middle;resizable=0;points=[];" vertex="1" connectable="0" parent="3D3lP3EjolxqIPAAytp8-95">
          <mxGeometry x="-0.7942" y="2" relative="1" as="geometry">
            <mxPoint x="-22" as="offset" />
          </mxGeometry>
        </mxCell>
        <mxCell id="3D3lP3EjolxqIPAAytp8-97" value="0..*" style="edgeLabel;html=1;align=center;verticalAlign=middle;resizable=0;points=[];" vertex="1" connectable="0" parent="3D3lP3EjolxqIPAAytp8-95">
          <mxGeometry x="0.4215" y="-1" relative="1" as="geometry">
            <mxPoint x="-14" y="25" as="offset" />
          </mxGeometry>
        </mxCell>
        <mxCell id="3D3lP3EjolxqIPAAytp8-98" value="" style="endArrow=none;html=1;rounded=0;exitX=0;exitY=0.5;exitDx=0;exitDy=0;entryX=1;entryY=0.5;entryDx=0;entryDy=0;" edge="1" parent="1" source="3D3lP3EjolxqIPAAytp8-74" target="3D3lP3EjolxqIPAAytp8-78">
          <mxGeometry width="50" height="50" relative="1" as="geometry">
            <mxPoint x="760" y="903" as="sourcePoint" />
            <mxPoint x="681" y="936" as="targetPoint" />
          </mxGeometry>
        </mxCell>
        <mxCell id="3D3lP3EjolxqIPAAytp8-99" value="1" style="edgeLabel;html=1;align=center;verticalAlign=middle;resizable=0;points=[];" vertex="1" connectable="0" parent="3D3lP3EjolxqIPAAytp8-98">
          <mxGeometry x="-0.7942" y="2" relative="1" as="geometry">
            <mxPoint x="-2" y="12" as="offset" />
          </mxGeometry>
        </mxCell>
        <mxCell id="3D3lP3EjolxqIPAAytp8-100" value="0..*" style="edgeLabel;html=1;align=center;verticalAlign=middle;resizable=0;points=[];" vertex="1" connectable="0" parent="3D3lP3EjolxqIPAAytp8-98">
          <mxGeometry x="0.4215" y="-1" relative="1" as="geometry">
            <mxPoint x="-47" y="12" as="offset" />
          </mxGeometry>
        </mxCell>
        <mxCell id="3D3lP3EjolxqIPAAytp8-101" value="" style="endArrow=none;html=1;rounded=0;entryX=0.5;entryY=0;entryDx=0;entryDy=0;exitX=0.504;exitY=1.005;exitDx=0;exitDy=0;exitPerimeter=0;" edge="1" parent="1" source="3D3lP3EjolxqIPAAytp8-84" target="3D3lP3EjolxqIPAAytp8-77">
          <mxGeometry width="50" height="50" relative="1" as="geometry">
            <mxPoint x="750" y="760" as="sourcePoint" />
            <mxPoint x="430" y="820" as="targetPoint" />
          </mxGeometry>
        </mxCell>
        <mxCell id="3D3lP3EjolxqIPAAytp8-102" value="1" style="edgeLabel;html=1;align=center;verticalAlign=middle;resizable=0;points=[];" vertex="1" connectable="0" parent="3D3lP3EjolxqIPAAytp8-101">
          <mxGeometry x="-0.7942" y="2" relative="1" as="geometry">
            <mxPoint x="7" y="8" as="offset" />
          </mxGeometry>
        </mxCell>
        <mxCell id="3D3lP3EjolxqIPAAytp8-103" value="0..*" style="edgeLabel;html=1;align=center;verticalAlign=middle;resizable=0;points=[];" vertex="1" connectable="0" parent="3D3lP3EjolxqIPAAytp8-101">
          <mxGeometry x="0.4215" y="-1" relative="1" as="geometry">
            <mxPoint x="15" y="9" as="offset" />
          </mxGeometry>
        </mxCell>
        <mxCell id="3D3lP3EjolxqIPAAytp8-106" value="" style="endArrow=none;html=1;rounded=0;exitX=0;exitY=0.5;exitDx=0;exitDy=0;entryX=0.5;entryY=1;entryDx=0;entryDy=0;" edge="1" parent="1" source="3D3lP3EjolxqIPAAytp8-78" target="3D3lP3EjolxqIPAAytp8-69">
          <mxGeometry width="50" height="50" relative="1" as="geometry">
            <mxPoint x="750" y="820" as="sourcePoint" />
            <mxPoint x="380" y="770" as="targetPoint" />
            <Array as="points">
              <mxPoint x="440" y="860" />
            </Array>
          </mxGeometry>
        </mxCell>
        <mxCell id="3D3lP3EjolxqIPAAytp8-107" value="1" style="edgeLabel;html=1;align=center;verticalAlign=middle;resizable=0;points=[];" vertex="1" connectable="0" parent="1">
          <mxGeometry x="770.1879550382528" y="816.8229407466758" as="geometry">
            <mxPoint x="-132" y="30" as="offset" />
          </mxGeometry>
        </mxCell>
        <mxCell id="3D3lP3EjolxqIPAAytp8-108" value="1" style="edgeLabel;html=1;align=center;verticalAlign=middle;resizable=0;points=[];" vertex="1" connectable="0" parent="1">
          <mxGeometry x="789.9979550382527" y="850.0029407466758" as="geometry">
            <mxPoint x="-331" y="-139" as="offset" />
          </mxGeometry>
        </mxCell>
      </root>
    </mxGraphModel>
  </diagram>
</mxfile>
